<svg width="30" height="30" viewBox="0 0 30 30" fill="none" xmlns="http://www.w3.org/2000/svg">
<path d="M16.0601 0.439184L29.5576 13.9393C30.5025 14.8843 29.8336 16.4999 28.4973 16.4999H26.9976V25.5C26.9976 26.6934 26.5236 27.838 25.6798 28.682C24.8361 29.5259 23.6917 30 22.4985 30H20.9987V19.4999C20.9988 18.3521 20.5603 17.2476 19.773 16.4125C18.9857 15.5773 17.9091 15.0747 16.7635 15.0073L16.4996 14.9998H13.5001C12.3069 14.9998 11.1625 15.474 10.3187 16.3179C9.47497 17.1618 9.00095 18.3064 9.00095 19.4999V30H7.50123C6.30798 30 5.1636 29.5259 4.31984 28.682C3.47608 27.838 3.00207 26.6934 3.00207 25.5V16.4999H1.50234C0.167591 16.4999 -0.502785 14.8843 0.44204 13.9393L13.9395 0.439184C14.2208 0.157975 14.6022 0 14.9998 0C15.3975 0 15.7789 0.157975 16.0601 0.439184ZM16.4996 17.9999C16.8973 17.9999 17.2788 18.1579 17.56 18.4392C17.8413 18.7205 17.9993 19.1021 17.9993 19.4999V30H12.0004V19.4999C12.0004 19.1325 12.1353 18.7779 12.3794 18.5033C12.6235 18.2288 12.9598 18.0534 13.3247 18.0104L13.5001 17.9999H16.4996Z" fill="white"/>
</svg>
