<svg width="25" height="26" viewBox="0 0 25 26" fill="none" xmlns="http://www.w3.org/2000/svg">
<path d="M9.87251 3.24141C11.6475 0.861413 14.3163 0.166413 16.7713 0.835163C19.4213 1.55641 21.7513 3.83266 22.525 7.00266C22.565 7.16516 22.5996 7.32766 22.6288 7.49016C21.5118 7.09216 20.2969 7.0615 19.1613 7.40266C17.5525 6.21266 15.56 6.01266 13.7888 6.66516C11.57 7.48391 9.8375 9.56016 9.43625 12.1727C8.92375 15.5177 10.9613 18.5227 13.8425 21.0777L14.3275 21.4977C13.9363 21.5252 13.5388 21.4639 13.1588 21.3827C12.9635 21.3407 12.7693 21.294 12.5763 21.2427L11.905 21.0552C5.9375 19.3764 1.9425 16.7502 0.796254 12.8252C-0.118746 9.69266 0.761255 6.55641 2.69625 4.60641C4.48875 2.80016 7.14625 2.06766 9.87251 3.24141ZM11.9075 12.5514C12.4425 9.06141 16.4788 7.34141 18.5513 10.3364C18.5711 10.3642 18.6011 10.3831 18.6348 10.389C18.6685 10.3948 18.7032 10.3872 18.7313 10.3677C21.7025 8.26266 24.9063 11.2589 24.215 14.7214C23.815 16.7297 21.9525 18.3964 18.6275 19.7214L18.0838 19.9339L17.755 20.0689C17.4713 20.1802 17.1713 20.2689 16.9 20.2214C16.63 20.1739 16.3788 19.9864 16.15 19.7864L15.7625 19.4364C12.8708 16.9481 11.5858 14.6531 11.9075 12.5514Z" fill="white"/>
</svg>
